HIERARCHY
ROOT Hips
{
	OFFSET 0.000000 0.000000 0.000000 
	CHANNELS 6 Xposition Yposition Zposition Yrotation Zrotation Xrotation 
	JOINT Lumbar
	{
		OFFSET 0.000000 0.000000 0.000000 
		CHANNELS 3 Zrotation Xrotation Yrotation
		JOINT Neck
		{
			OFFSET 0.000000 0.445665 0.000000 
			CHANNELS 3 Zrotation Xrotation Yrotation
			End Site
			{
				OFFSET 0.000000 0.227535 0.000000 
			}
		}
		JOINT RightShoulder
		{
			OFFSET 0.019635 0.377685 0.194865 
			CHANNELS 3 Zrotation Xrotation Yrotation
			JOINT RightElbow
			{
				OFFSET 0.000000 -0.243375 0.000000 
				CHANNELS 2 Zrotation Yrotation
				JOINT RightWrist
				{
					OFFSET 0.000000 -0.264825 0.000000 
					CHANNELS 2 Zrotation Xrotation
					End Site
					{
						OFFSET 0.006600 -0.176220 0.000990 
					}
				}
			}
		}
		JOINT LeftShoulder
		{
			OFFSET 0.019635 0.377685 -0.194865 
			CHANNELS 3 Zrotation Xrotation Yrotation
			JOINT LeftElbow
			{
				OFFSET 0.000000 -0.243375 0.000000 
				CHANNELS 2 Zrotation Yrotation
				JOINT LeftWrist
				{
					OFFSET 0.000000 -0.264825 0.000000 
					CHANNELS 2 Zrotation Xrotation
					End Site
					{
						OFFSET 0.006600 -0.176220 -0.000990 
					}
				}
			}
		}
	}
	JOINT RightHip
	{
		OFFSET 0.052140 -0.069960 0.075570 
		CHANNELS 3 Zrotation Xrotation Yrotation
		JOINT RightKnee
		{
			OFFSET 0.000000 -0.402270 0.000000 
			CHANNELS 1 Zrotation
			JOINT RightAnkle
			{
				OFFSET 0.000000 -0.404085 0.000000 
				CHANNELS 3 Zrotation Xrotation Yrotation
				End Site
				{
					OFFSET 0.204105 -0.089430 0.008415 
				}
			}
		}
	}
	JOINT LeftHip
	{
		OFFSET 0.052140 -0.069960 -0.075570 
		CHANNELS 3 Zrotation Xrotation Yrotation
		JOINT LeftKnee
		{
			OFFSET 0.000000 -0.402270 0.000000 
			CHANNELS 1 Zrotation
			JOINT LeftAnkle
			{
				OFFSET 0.000000 -0.404085 0.000000 
				CHANNELS 3 Zrotation Xrotation Yrotation
				End Site
				{
					OFFSET 0.204105 -0.089430 -0.008415 
				}
			}
		}
	}
}
MOTION
Frames: 14
Frame Time: 0.02
0.00098 0.00018 3e-05 -168.14277 -41.93916 0.53927 49.39489 1.57816 -6.94529 11.25251 -2.35249 -0.32572 4.49679 -17.33845 13.59056 41.91384 63.8824 -2.19814 -3.81935 8.01122 11.79837 -7.53123 46.63717 -94.24837 6.46289 -1.18541 45.83923 -0.1026 -2.32577 -19.49325 -6.15451 -3.82293 -2.59741 49.50035 4.7383 2.19736 -24.45116 -6.40757 2.3637 1.84794
0.00074 0.0001 -0.00046 -168.18673 -41.86792 0.54023 49.40444 1.61041 -6.71997 10.89297 -2.30007 -0.3265 3.12604 -16.71585 11.69186 41.36753 69.22664 -0.8452 -2.91174 6.35704 11.84784 -7.0219 46.56478 -94.59798 6.65274 -1.21319 45.75613 -0.10875 -2.50272 -19.50595 -6.14672 -3.79279 -2.58132 49.3985 4.70935 1.95531 -24.44759 -6.40722 2.40678 1.87061
0.00051 2e-05 -0.00094 -168.23049 -41.79679 0.54118 49.41392 1.6426 -6.49527 10.53399 -2.24774 -0.32733 1.75754 -16.09476 9.79709 40.8218 74.55507 0.50371 -2.00684 4.70489 11.89742 -6.51364 46.49237 -94.94734 6.84248 -1.24092 45.67315 -0.11485 -2.67922 -19.51863 -6.13895 -3.76274 -2.56528 49.29684 4.68055 1.71416 -24.44401 -6.40687 2.44971 1.8932
0.00028 -6e-05 -0.00143 -168.2743 -41.72576 0.54213 49.42344 1.67476 -6.27063 10.17547 -2.19546 -0.32812 0.39071 -15.47399 7.90382 40.27698 79.88328 1.8526 -1.10197 3.05534 11.94678 -6.00576 46.42017 -95.29599 7.03181 -1.26863 45.59028 -0.12097 -2.85565 -19.5313 -6.13118 -3.73269 -2.54925 49.19528 4.6517 1.47288 -24.44044 -6.40652 2.49265 1.9158
5e-05 -0.00013 -0.00191 -168.31835 -41.65465 0.54309 49.43302 1.70695 -6.0454 9.8166 -2.14313 -0.32884 -0.97767 -14.85195 6.00766 39.73204 85.22615 3.20521 -0.19456 1.40485 11.99597 -5.49708 46.34805 -95.64464 7.2211 -1.29635 45.50734 -0.12714 -3.03249 -19.54398 -6.12339 -3.70257 -2.53317 49.0936 4.62267 1.23067 -24.43687 -6.40617 2.53573 1.93849
-0.00018 -0.00021 -0.0024 -168.36147 -41.58346 0.54403 49.44229 1.73916 -5.82187 9.45738 -2.09081 -0.32988 -2.34635 -14.23294 4.1161 39.1847 90.52343 4.54613 0.70495 -0.2507 12.04636 -4.98981 46.27504 -95.99547 7.41182 -1.3241 45.42429 -0.13309 -3.20823 -19.55666 -6.11564 -3.67264 -2.51721 48.99199 4.59436 0.99174 -24.4333 -6.40584 2.57833 1.96089
-0.00041 -0.00029 -0.00288 -168.40643 -41.51253 0.54501 49.4522 1.77128 -5.59515 9.0993 -2.0385 -0.33029 -3.71275 -13.60831 2.21666 38.6427 95.90865 5.90966 1.61966 -1.89406 12.09423 -4.48003 46.20393 -96.34143 7.59934 -1.35178 45.34156 -0.13948 -3.38603 -19.56933 -6.10782 -3.64237 -2.50103 48.89033 4.56464 0.74646 -24.42972 -6.40546 2.62187 1.98384
-0.00064 -0.00037 -0.00337 -168.44965 -41.44136 0.54596 49.46149 1.8035 -5.37139 8.74013 -1.98623 -0.33127 -5.08158 -12.98926 0.32576 38.09596 101.20908 7.25133 2.51982 -3.54901 12.14451 -3.97296 46.13104 -96.69203 7.78999 -1.37951 45.25854 -0.14544 -3.56186 -19.582 -6.10008 -3.61242 -2.48506 48.78873 4.53622 0.50707 -24.42615 -6.40513 2.66453 2.00628
-0.00087 -0.00044 -0.00385 -168.49093 -41.36986 0.54683 49.47011 1.83579 -5.15104 8.3795 -1.9338 -0.333 -6.45302 -12.37511 -1.5609 37.54227 106.42289 8.57089 3.40471 -5.21799 12.19747 -3.46735 46.05603 -97.04799 7.98395 -1.40736 45.17508 -0.15097 -3.73566 -19.59472 -6.0924 -3.58282 -2.46931 48.68709 4.50936 0.27466 -24.42261 -6.40484 2.70617 2.02811
-0.00111 -0.00052 -0.00435 -168.54393 -41.30015 0.54804 49.48285 1.86754 -4.91043 8.02686 -1.88166 -0.33056 -7.80843 -11.72699 -3.49069 37.02504 112.18641 10.03157 4.38505 -6.80592 12.23421 -2.94775 45.99336 -97.37222 8.15731 -1.43473 45.09386 -0.15928 -3.92227 -19.60729 -6.08424 -3.55106 -2.45218 48.58531 4.47346 0.00144 -24.41896 -6.40423 2.75384 2.05349
-0.00132 -0.0006 -0.00482 -168.57186 -41.22674 0.54859 49.48675 1.90051 -4.71304 7.65771 -1.82929 -0.33683 -9.198 -11.15429 -5.31718 36.43332 116.75687 11.1855 5.15906 -8.5646 12.30565 -2.46133 45.90457 -97.76386 8.37508 -1.46293 45.00812 -0.16154 -4.08109 -19.62011 -6.07716 -3.52395 -2.43806 48.48411 4.45669 -0.18526 -24.41549 -6.40436 2.78869 2.07134
-0.00148 -0.00066 -0.00522 -168.53298 -41.14219 0.54681 49.46709 1.93629 -4.63101 7.23975 -1.77319 -0.36804 -10.67935 -10.75916 -6.9616 35.61459 118.30613 11.56666 5.40356 -10.79899 12.46936 -2.03631 45.74411 -98.33808 8.70808 -1.49485 44.90814 -0.14841 -4.17 -19.63428 -6.0725 -3.50891 -2.43151 48.3821 4.49224 -0.13612 -24.41291 -6.40617 2.78871 2.06871
-0.00161 -0.00072 -0.0056 -168.46845 -41.05407 0.54446 49.43832 1.97341 -4.59272 6.80598 -1.71747 -0.40781 -12.19465 -10.44493 -8.48484 34.72533 118.61773 11.62917 5.43506 -13.20266 12.66846 -1.65001 45.5575 -98.97996 9.08673 -1.52729 44.80395 -0.12902 -4.23031 -19.64859 -6.06901 -3.49865 -2.42811 48.28112 4.54698 -0.00012 -24.41042 -6.40878 2.77579 2.05849
-0.00175 -0.00078 -0.006 -168.41448 -40.9683 0.54271 49.41337 2.01022 -4.53684 6.38155 -1.66359 -0.44296 -13.69667 -10.11321 -9.99571 33.88296 119.32168 11.78967 5.53884 -15.52537 12.85329 -1.26543 45.38274 -99.59302 9.44908 -1.5586 44.7029 -0.11161 -4.29894 -19.66241 -6.06534 -3.48665 -2.42379 48.1812 4.59313 0.09757 -24.40763 -6.41124 2.76856 2.05161
